<svg xmlns="http://www.w3.org/2000/svg" width="24" height="24" viewBox="0 0 24 24" transform="scale(1.3)">
  <defs>
  <path class='path_exitfull' d="M9,10V9a.9.9,0,0,1,1-1,.9.9,0,0,1,1,1v2a.9.9,0,0,1-1,1H8a.9.9,0,0,1-1-1,.9.9,0,0,1,1-1Zm6,4v1a1,1,0,0,1-2,0V13a.9.9,0,0,1,1-1h2a1,1,0,0,1,0,2Zm3-7H6V17H18Zm2,0V17a2,2,0,0,1-2,2H6a2,2,0,0,1-2-2V7A2,2,0,0,1,6,5H18A2,2,0,0,1,20,7Z"></path>
  <path class='path_full' d="M9,10v1a.9.9,0,0,1-1,1,.9.9,0,0,1-1-1V9A.9.9,0,0,1,8,8h2a.9.9,0,0,1,1,1,.9.9,0,0,1-1,1Zm6,4V13a1,1,0,0,1,2,0v2a.9.9,0,0,1-1,1H14a1,1,0,0,1,0-2Zm3-7H6V17H18Zm2,0V17a2,2,0,0,1-2,2H6a2,2,0,0,1-2-2V7A2,2,0,0,1,6,5H18A2,2,0,0,1,20,7Z"></path>
 </defs>
  <path class="path" d="M9,10v1a.9.9,0,0,1-1,1,.9.9,0,0,1-1-1V9A.9.9,0,0,1,8,8h2a.9.9,0,0,1,1,1,.9.9,0,0,1-1,1Zm6,4V13a1,1,0,0,1,2,0v2a.9.9,0,0,1-1,1H14a1,1,0,0,1,0-2Zm3-7H6V17H18Zm2,0V17a2,2,0,0,1-2,2H6a2,2,0,0,1-2-2V7A2,2,0,0,1,6,5H18A2,2,0,0,1,20,7Z"></path>
</svg>
