<svg xmlns="http://www.w3.org/2000/svg" width="24px" height="24px" viewBox="0 0 24 24">
  <g id="Page-1" stroke="none" stroke-width="1" fill="none" fill-rule="evenodd">
    <g transform="translate(-488.000000, -340.000000)" fill="#FFFFFF">
      <g id="Group-2">
        <g id="volme_big-copy" transform="translate(488.000000, 340.000000)">
          <rect id="Rectangle-18" x="11" y="4" width="2" height="12" rx="1"></rect>
          <rect id="Rectangle-2" x="3" y="18" width="18" height="2" rx="1"></rect>
          <rect id="Rectangle-2" transform="translate(4.000000, 17.500000) rotate(90.000000) translate(-4.000000, -17.500000) " x="1.5" y="16.5" width="5" height="2" rx="1"></rect><rect id="Rectangle-2-Copy-3" transform="translate(20.000000, 17.500000) rotate(90.000000) translate(-20.000000, -17.500000) " x="17.5" y="16.5" width="5" height="2" rx="1"></rect>
          <path d="M9.48791171,8.26502656 L9.48791171,14.2650266 C9.48791171,14.8173113 9.04019646,15.2650266 8.48791171,15.2650266 C7.93562696,15.2650266 7.48791171,14.8173113 7.48791171,14.2650266 L7.48791171,7.26502656 C7.48791171,6.71274181 7.93562696,6.26502656 8.48791171,6.26502656 L15.4879117,6.26502656 C16.0401965,6.26502656 16.4879117,6.71274181 16.4879117,7.26502656 C16.4879117,7.81731131 16.0401965,8.26502656 15.4879117,8.26502656 L9.48791171,8.26502656 Z" id="Combined-Shape" transform="translate(11.987912, 10.765027) scale(1, -1) rotate(45.000000) translate(-11.987912, -10.765027) "></path>
        </g>
      </g>
    </g>
  </g>
</svg>
