<svg width="20" height="20" viewBox="0 0 20 20" fill="none" xmlns="http://www.w3.org/2000/svg">
  <path fill-rule="evenodd" clip-rule="evenodd"
    d="M16.5 4.3H3.5C3.38954 4.3 3.3 4.38954 3.3 4.5V15.5C3.3 15.6105 3.38954 15.7 3.5 15.7H8.50005L8.50006 17.5H3.5C2.39543 17.5 1.5 16.6046 1.5 15.5V4.5C1.5 3.39543 2.39543 2.5 3.5 2.5H16.5C17.6046 2.5 18.5 3.39543 18.5 4.5V8.5H16.7V4.5C16.7 4.38954 16.6105 4.3 16.5 4.3ZM12 11.5C11.4477 11.5 11 11.9477 11 12.5L11 16.5C11 17.0523 11.4478 17.5 12 17.5H17.5C18.0523 17.5 18.5 17.0523 18.5 16.5L18.5 12.5C18.5 11.9477 18.0523 11.5 17.5 11.5H12Z"
    fill="white" />
  <path fill-rule="evenodd" clip-rule="evenodd"
    d="M9.4998 7.7C9.77595 7.7 9.9998 7.47614 9.9998 7.2V6.5C9.9998 6.22386 9.77595 6 9.4998 6H5.5402L5.52754 6.00016H5.5C5.22386 6.00016 5 6.22401 5 6.50016V10.4598C5 10.7359 5.22386 10.9598 5.5 10.9598H6.2C6.47614 10.9598 6.7 10.7359 6.7 10.4598V8.83005L8.76983 10.9386C8.96327 11.1357 9.27984 11.1386 9.47691 10.9451L9.97645 10.4548C10.1735 10.2613 10.1764 9.94476 9.983 9.7477L7.97289 7.7H9.4998Z"
    fill="white" />
</svg>