<svg xmlns="http://www.w3.org/2000/svg" width="28" height="28" viewBox="0 0 28 28">
  <path transform="scale(0.0220625 0.0220625)" d="M358.4 358.4h-204.8v307.2h204.8l256 256v-819.2l-256 256z"></path>
  <defs>
  <path class="path_large" transform="scale(0.0220625 0.0220625)" d="M940.632 837.632l-72.192-72.192c65.114-64.745 105.412-154.386 105.412-253.44s-40.299-188.695-105.396-253.424l-0.016-0.016 72.192-72.192c83.639 83.197 135.401 198.37 135.401 325.632s-51.762 242.434-135.381 325.612l-0.020 0.020zM795.648 693.248l-72.704-72.704c27.756-27.789 44.921-66.162 44.921-108.544s-17.165-80.755-44.922-108.546l0.002 0.002 72.704-72.704c46.713 46.235 75.639 110.363 75.639 181.248s-28.926 135.013-75.617 181.227l-0.021 0.021z"></path>
  <!--muted-->
  <path class="path_muted" transform="scale(0.0220625 0.0220625)" d="M920.4 439.808l-108.544-109.056-72.704 72.704 109.568 108.544-109.056 108.544 72.704 72.704 108.032-109.568 108.544 109.056 72.704-72.704-109.568-108.032 109.056-108.544-72.704-72.704-108.032 109.568z"></path>
  <!--small-->
  <path class="path_small" transform="scale(0.0220625 0.0220625)" d="M795.648 693.248l-72.704-72.704c27.756-27.789 44.921-66.162 44.921-108.544s-17.165-80.755-44.922-108.546l0.002 0.002 72.704-72.704c46.713 46.235 75.639 110.363 75.639 181.248s-28.926 135.013-75.617 181.227l-0.021 0.021zM795.648 693.248l-72.704-72.704c27.756-27.789 44.921-66.162 44.921-108.544s-17.165-80.755-44.922-108.546l0.002 0.002 72.704-72.704c46.713 46.235 75.639 110.363 75.639 181.248s-28.926 135.013-75.617 181.227l-0.021 0.021z"></path>
  </defs>
  <path class="path" transform="scale(0.0220625 0.0220625)" d="M940.632 837.632l-72.192-72.192c65.114-64.745 105.412-154.386 105.412-253.44s-40.299-188.695-105.396-253.424l-0.016-0.016 72.192-72.192c83.639 83.197 135.401 198.37 135.401 325.632s-51.762 242.434-135.381 325.612l-0.020 0.020zM795.648 693.248l-72.704-72.704c27.756-27.789 44.921-66.162 44.921-108.544s-17.165-80.755-44.922-108.546l0.002 0.002 72.704-72.704c46.713 46.235 75.639 110.363 75.639 181.248s-28.926 135.013-75.617 181.227l-0.021 0.021z"></path>
</svg>
