<svg t="1600422191774" class="icon" viewBox="0 0 1024 1024" version="1.1" xmlns="http://www.w3.org/2000/svg" p-id="3100" width="28" height="28"><path d="M256 938.666667h512L512 597.333333 256 938.666667z m170.666667-85.333334l85.333333-113.781333L597.333333 853.333333H426.666667zM853.333333 85.333333H170.666667C99.946667 85.333333 42.666667 142.613333 42.666667 213.333333v426.666667c0 70.72 57.28 128 128 128h106.666666l64-85.333333H170.666667c-23.573333 0-42.666667-19.093333-42.666667-42.666667V213.333333c0-23.573333 19.093333-42.666667 42.666667-42.666666h682.666666c23.573333 0 42.666667 19.093333 42.666667 42.666666v426.666667c0 23.573333-19.093333 42.666667-42.666667 42.666667H682.666667l64 85.333333h106.666666c70.72 0 128-57.28 128-128V213.333333c0-70.72-57.28-128-128-128z" p-id="3101" fill="#ffffff"></path></svg>