<svg xmlns="http://www.w3.org/2000/svg" width="40" height="40" viewBox="0 0 40 40">
  <path transform="scale(0.028 0.028)" d="M834.56 81.92H189.44c-59.392 0-107.52 48.128-107.52 107.52v645.12c0 59.392 48.128 107.52 107.52 107.52h645.12c59.392 0 107.52-48.128 107.52-107.52V189.44c0-59.392-48.128-107.52-107.52-107.52zM458.24 727.04c0 14.848-12.288 26.624-26.624 26.624S404.48 741.888 404.48 727.04v-69.632L289.28 773.12c-10.752 10.24-27.648 10.24-37.888 0-10.24-10.752-10.24-27.648 0-37.888L366.592 619.52H296.96c-14.848 0-26.624-12.288-26.624-26.624s12.288-26.624 26.624-26.624h134.144c14.848 0 26.624 12.288 26.624 26.624V727.04z m0-295.936c0 14.848-12.288 26.624-26.624 26.624H296.96c-14.848 0-26.624-12.288-26.624-26.624S282.112 404.48 296.96 404.48h69.632L251.392 289.28c-10.24-10.752-10.24-27.648 0-37.888 5.12-5.12 12.288-7.68 18.944-7.68 6.656 0 13.824 2.56 18.944 7.68L404.48 366.592V296.96c0-14.848 12.288-26.624 26.624-26.624s26.624 12.288 26.624 26.624v134.144zM773.12 773.12c-10.752 10.24-27.648 10.24-37.888 0L619.52 657.408V727.04c0 14.848-12.288 26.624-26.624 26.624s-26.624-11.776-26.624-26.624v-134.144c0-14.848 12.288-26.624 26.624-26.624H727.04c14.848 0 26.624 12.288 26.624 26.624s-12.288 26.624-26.624 26.624h-69.632l115.2 115.2c10.752 10.752 10.752 27.648 0.512 38.4z m0-483.84L657.408 404.48H727.04c14.848 0 26.624 12.288 26.624 26.624 0 14.848-12.288 26.624-26.624 26.624h-134.144c-14.848 0-26.624-12.288-26.624-26.624V296.96c0-14.848 12.288-26.624 26.624-26.624s26.624 12.288 26.624 26.624v69.632L734.72 250.88c5.12-5.12 12.288-7.68 18.944-7.68s13.824 2.56 18.944 7.68c10.752 10.752 10.752 27.648 0.512 38.4z"></path>
</svg>
