<svg xmlns="http://www.w3.org/2000/svg" viewBox="0 0 40 40" width="40" height="40">
  <path fill="#f85959" transform="scale(0.8 0.8)" d="M36.5,18.73a1.19,1.19,0,0,0,1-1.14V16.33a1.2,1.2,0,0,0-1-1.13l-.61-.08a1.75,1.75,0,0,1-1.3-.86l-.21-.36-.2-.36A1.72,1.72,0,0,1,34,12l.23-.58a1.18,1.18,0,0,0-.5-1.42l-1.1-.62a1.18,1.18,0,0,0-1.47.3l-.39.51a1.82,1.82,0,0,1-1.41.72c-.44,0-1.88-.27-2.22-.7l-.39-.49a1.18,1.18,0,0,0-1.48-.28l-1.09.64a1.19,1.19,0,0,0-.47,1.43l.25.59a1.87,1.87,0,0,1-.08,1.58c-.26.37-1.17,1.5-1.71,1.58l-.63.09a1.19,1.19,0,0,0-1,1.14l0,1.27a1.17,1.17,0,0,0,1,1.12l.61.08a1.74,1.74,0,0,1,1.3.87l.21.36.2.35A1.69,1.69,0,0,1,24,22.08l-.23.59a1.19,1.19,0,0,0,.5,1.42l1.1.62a1.19,1.19,0,0,0,1.48-.31l.38-.5a1.83,1.83,0,0,1,1.41-.72c.44,0,1.88.25,2.22.69l.39.49a1.18,1.18,0,0,0,1.48.28L33.86,24a1.19,1.19,0,0,0,.47-1.43L34.09,22a1.84,1.84,0,0,1,.07-1.58c.26-.37,1.17-1.5,1.72-1.58ZM31,18.94a2.76,2.76,0,0,1-4.65-1.2A2.71,2.71,0,0,1,27,15.13a2.76,2.76,0,0,1,4.64,1.2A2.7,2.7,0,0,1,31,18.94Z"/>
  <path fill="#f85959" transform="scale(0.8 0.8)" d="M32,0H3.59A3.59,3.59,0,0,0,0,3.59v17A3.59,3.59,0,0,0,3.59,24.2H19.72a12.59,12.59,0,0,1-.81-1.2A11.73,11.73,0,0,1,35.54,7.28V3.59A3.59,3.59,0,0,0,32,0ZM13,14.18H4.29a1.52,1.52,0,0,1,0-3H13a1.52,1.52,0,0,1,0,3ZM16.45,8H4.29a1.51,1.51,0,0,1,0-3H16.45a1.51,1.51,0,1,1,0,3Z"/>
</svg>
