<svg xmlns="http://www.w3.org/2000/svg" width="28" height="28" viewBox="0 0 28 28">
    <path fill="#FFF" fill-opacity="1" fill-rule="nonzero" d="M18.17 19.988a7.182 7.182 0 0 1-4.256 1.318 7.806 7.806 0 0 1-.595-.03c-.08-.008-.16-.021-.242-.031a8.004 8.004 0 0 1-.458-.071c-.094-.018-.185-.042-.276-.063a7.743 7.743 0 0 1-.439-.113c-.068-.022-.136-.047-.205-.07a7.03 7.03 0 0 1-.492-.181c-.037-.015-.072-.032-.108-.049a7.295 7.295 0 0 1-.554-.269l-.025-.012a7.347 7.347 0 0 1-2.111-1.753c-.03-.036-.057-.074-.086-.11a7.305 7.305 0 0 1-1.594-4.557h1.686a.123.123 0 0 0 .108-.064.119.119 0 0 0-.006-.125L5.684 9.532a.123.123 0 0 0-.103-.056.123.123 0 0 0-.102.056l-2.834 4.276a.121.121 0 0 0-.005.125c.022.04.064.064.107.064h1.687c0 2.025.627 3.902 1.693 5.454.013.021.022.044.037.066.11.159.233.305.352.455.043.057.085.116.13.171.175.213.36.413.55.61.02.018.036.038.054.055a9.447 9.447 0 0 0 2.91 1.996c.058.026.115.054.175.079.202.084.41.158.619.228.098.034.196.069.296.1.183.054.37.1.558.145.125.029.249.06.376.085.052.01.102.027.155.035.177.032.355.05.533.071.064.007.128.018.19.026.32.03.639.052.956.052a9.46 9.46 0 0 0 5.47-1.746 1.16 1.16 0 0 0 .282-1.608 1.143 1.143 0 0 0-1.6-.283zm5.397-5.991a9.604 9.604 0 0 0-1.685-5.441c-.016-.027-.026-.054-.043-.078-.132-.19-.276-.366-.419-.543-.017-.022-.032-.044-.05-.065a9.467 9.467 0 0 0-3.571-2.7l-.114-.051a11.2 11.2 0 0 0-.673-.248c-.082-.027-.163-.057-.247-.082a9.188 9.188 0 0 0-.6-.156c-.113-.026-.224-.055-.337-.077-.057-.011-.109-.028-.164-.037-.151-.027-.304-.039-.455-.058-.104-.013-.208-.03-.313-.04a10.05 10.05 0 0 0-.759-.039c-.045 0-.09-.007-.136-.007l-.025.003a9.45 9.45 0 0 0-5.46 1.737 1.16 1.16 0 0 0-.284 1.608c.363.523 1.08.65 1.6.284a7.182 7.182 0 0 1 4.222-1.32c.217.002.429.013.639.033.065.007.129.017.193.025.173.021.344.046.513.08.075.014.149.033.221.05.166.037.331.077.494.127l.152.051c.185.061.366.127.545.201l.054.025a7.308 7.308 0 0 1 2.741 2.067l.013.018a7.302 7.302 0 0 1 1.652 4.633h-1.686a.123.123 0 0 0-.108.064.12.12 0 0 0 .006.124l2.834 4.277c.022.033.06.054.103.054.042 0 .08-.021.102-.054l2.833-4.277a.12.12 0 0 0 .005-.124.123.123 0 0 0-.108-.064h-1.685z"/>
</svg>
