<svg xmlns="http://www.w3.org/2000/svg" width="32" height="32" viewBox="0 0 40 40" fill="none">
  <g clip-path="url(#clip0)">
    <path transform="scale(1.5 1.5)" d="M11.6665 9.16663H4.1665C2.78579 9.16663 1.6665 10.2859 1.6665 11.6666V15.8333C1.6665 17.214 2.78579 18.3333 4.1665 18.3333H11.6665C13.0472 18.3333 14.1665 17.214 14.1665 15.8333V11.6666C14.1665 10.2859 13.0472 9.16663 11.6665 9.16663Z" fill="white"/>
    <path transform="scale(1.5 1.5)" fill-rule="evenodd" clip-rule="evenodd" d="M3.88148 4.06298C3.75371 4.21005 3.67667 4.40231 3.67749 4.61242C3.67847 4.87253 3.79852 5.10435 3.98581 5.25646L6.99111 8.05895C7.32771 8.37283 7.85502 8.35443 8.16891 8.01782C8.48279 7.68122 8.46437 7.15391 8.12778 6.84003L6.62061 5.43457L9.8198 5.4224C9.82848 5.42239 9.8372 5.42221 9.84591 5.4219C10.9714 5.38233 12.0885 5.6285 13.0931 6.13744C14.0976 6.64635 14.957 7.40148 15.5908 8.33234C16.2246 9.2632 16.6122 10.3394 16.7177 11.4606C16.823 12.5819 16.6427 13.7115 16.1934 14.7442C16.0098 15.1661 16.203 15.6571 16.6251 15.8408C17.0471 16.0243 17.5381 15.8311 17.7216 15.4091C18.2833 14.1183 18.5087 12.7063 18.3771 11.3047C18.2453 9.90318 17.7607 8.55792 16.9684 7.39433C16.1761 6.23073 15.1021 5.28683 13.8463 4.65065C12.5946 4.01651 11.203 3.70872 9.80072 3.75583L6.43415 3.76862L7.96326 2.12885C8.27715 1.79225 8.25872 1.26494 7.92213 0.951061C7.58553 0.63718 7.05822 0.655585 6.74433 0.99219L3.90268 4.0395C3.89545 4.04724 3.88841 4.05509 3.88154 4.06303L3.88148 4.06298Z" fill="white"/>
  </g>
  <defs>
    <clipPath id="clip0">
      <rect width="40" height="40" fill="white"/>
    </clipPath>
  </defs>
</svg>
