
<svg width="43px" height="48px" viewBox="0 0 43 48" version="1.1" xmlns="http://www.w3.org/2000/svg">
    <defs>
        <path d="M31.5,8 C33.975,8 36.0375,9.48571429 36.3125,11.5428571 C36.725,14.0571429 37,19.0857143 37,24 C37,28.9142857 36.725,33.9428571 36.3125,36.4571429 C36.0375,38.5142857 33.975,40 31.5,40 C29.025,40 26.9625,38.5142857 26.6875,36.4571429 C26.275,33.9428571 26,29.0285714 26,24 L26.0009116,23.4976085 C26.0184861,18.6464762 26.28875,13.9733333 26.6875,11.5428571 C26.9625,9.48571429 29.025,8 31.5,8 Z M15.5,8 C17.975,8 20.0375,9.48571429 20.3125,11.5428571 C20.725,14.0571429 21,19.0857143 21,24 C21,28.9142857 20.725,33.9428571 20.3125,36.4571429 C20.0375,38.5142857 17.975,40 15.5,40 C13.025,40 10.9625,38.5142857 10.6875,36.4571429 C10.275,33.9428571 10,29.0285714 10,24 L10.0009116,23.4976085 C10.0184861,18.6464762 10.28875,13.9733333 10.6875,11.5428571 C10.9625,9.48571429 13.025,8 15.5,8 Z" id="path-1"></path>
    </defs>
    <g stroke="none" stroke-width="1" fill="none" fill-rule="evenodd">
        <g transform="translate(-2.000000, 0.000000)">
            <mask id="mask-2" fill="white">
                <use xlink:href="#path-1"></use>
            </mask>
            <g id="stop">
                <use fill="black" fill-opacity="1" filter="url(#filter-3)" xlink:href="#path-1"></use>
                <use fill="#FFFFFF" fill-rule="evenodd" xlink:href="#path-1"></use>
            </g>
        </g>
    </g>
</svg>