
<svg width="39px" height="32px" viewBox="0 0 39 32" version="1.1" xmlns="http://www.w3.org/2000/svg" >
    <defs>
        <path d="M33.5,16 C34.3284271,16 35,16.6715729 35,17.5 L35,30.5 C35,31.3284271 34.3284271,32 33.5,32 C32.6715729,32 32,31.3284271 32,30.5 L32,17.5 C32,16.6715729 32.6715729,16 33.5,16 Z M26.8061763,26.399386 C24.1843367,29.0506241 20.8171889,30.9893382 17.036512,31.890936 C15.2282906,32.3221525 13.3644636,31.4636629 12.7911226,29.5107664 C12.2177816,27.5578699 12,25.9039715 12,23.987723 C12,22.0835873 12.2012684,20.4864522 12.7812439,18.4981918 C13.3612193,16.5099314 15.1863059,15.6759041 17.0262217,16.1135808 C20.8106031,17.014371 24.1810755,18.9542785 26.8057647,21.6075534 C28.1919723,23.0088583 28.1919723,24.9980512 26.8061763,26.399386 Z" id="path-1"></path>
    </defs>
    <g stroke="none" stroke-width="1" fill="none" fill-rule="evenodd">
        <g id="icon/48/next" transform="translate(-4.000000, -8.000000)">
            <mask id="mask-2" fill="white">
                <use xlink:href="#path-1"></use>
            </mask>
            <g id="Mask">
                <use fill="black" fill-opacity="1" filter="url(#filter-3)" xlink:href="#path-1"></use>
                <use fill="#FFFFFF" fill-rule="evenodd" xlink:href="#path-1"></use>
            </g>
        </g>
    </g>
</svg>